<?xml version="1.0" standalone="no"?>
<!DOCTYPE svg PUBLIC "-//W3C//DTD SVG 20010904//EN"
 "http://www.w3.org/TR/2001/REC-SVG-20010904/DTD/svg10.dtd">
<svg version="1.0" xmlns="http://www.w3.org/2000/svg"
 width="800.000000pt" height="800.000000pt" viewBox="0 0 800.000000 800.000000"
 preserveAspectRatio="xMidYMid meet">
<metadata>
Created by potrace 1.13, written by Peter Selinger 2001-2015
</metadata>
<g transform="translate(0.000000,800.000000) scale(0.100000,-0.100000)"
fill="#000000" stroke="none">
<path d="M3098 7529 c-26 -15 -22 -46 7 -65 21 -14 25 -24 25 -65 0 -38 -4
-51 -19 -59 -27 -14 -58 -13 -71 3 -5 6 -31 38 -57 70 l-47 57 -56 0 c-31 0
-61 -5 -68 -12 -19 -19 -14 -52 11 -63 26 -12 30 -48 4 -53 -12 -3 -21 6 -28
27 -10 27 -15 31 -49 31 -31 0 -43 6 -60 30 -12 17 -28 30 -35 30 -8 0 -21
-13 -30 -30 -13 -26 -21 -30 -55 -30 -52 0 -64 -30 -26 -69 23 -24 26 -35 26
-104 0 -82 -9 -97 -62 -97 -17 0 -42 -22 -93 -86 -39 -47 -78 -93 -88 -102
-10 -9 -25 -29 -33 -44 -12 -22 -22 -28 -49 -28 -19 0 -39 -6 -45 -12 -5 -7
-31 -39 -56 -70 -40 -50 -51 -58 -80 -58 -24 0 -37 -6 -45 -22 -7 -13 -24 -35
-38 -50 -80 -83 -81 -84 -81 -161 0 -82 -9 -97 -55 -97 -29 0 -55 -15 -55 -32
0 -4 14 -22 31 -39 27 -28 31 -37 26 -73 -4 -28 -14 -46 -31 -59 -21 -15 -26
-27 -26 -59 0 -31 -7 -49 -30 -75 -28 -31 -30 -39 -28 -105 1 -66 0 -72 -25
-90 l-27 -20 0 -249 0 -249 24 -15 c18 -12 25 -27 28 -67 4 -41 11 -55 32 -71
25 -18 26 -22 26 -126 0 -106 0 -109 30 -139 28 -29 30 -37 30 -105 0 -66 3
-76 25 -95 19 -16 25 -32 25 -62 0 -30 7 -46 30 -70 23 -24 30 -40 30 -70 0
-30 6 -46 25 -62 22 -19 25 -29 25 -95 0 -68 2 -76 30 -105 22 -23 30 -40 30
-68 0 -28 8 -45 30 -68 23 -24 30 -41 30 -70 0 -28 7 -45 25 -62 19 -18 25
-34 25 -65 0 -33 6 -47 30 -70 24 -23 30 -37 30 -69 0 -30 7 -47 25 -66 81
-82 85 -89 85 -162 l0 -69 85 -100 c74 -87 85 -105 85 -138 0 -27 7 -44 25
-61 19 -18 25 -34 25 -66 0 -49 21 -74 45 -54 12 10 15 44 15 185 l0 172 -30
31 -30 32 0 136 0 135 -115 137 c-64 75 -126 150 -138 165 -12 16 -34 40 -49
55 -22 20 -28 36 -28 67 0 33 -6 47 -30 70 -24 23 -30 37 -30 69 0 29 -7 47
-25 67 -25 25 -26 30 -27 169 0 144 0 144 26 163 21 15 26 27 26 62 0 53 19
75 65 75 28 0 37 6 50 30 15 29 18 30 83 30 64 0 68 -1 84 -30 16 -28 21 -30
77 -30 43 0 64 -5 73 -16 7 -9 26 -30 42 -47 20 -22 31 -45 34 -77 3 -30 14
-54 31 -72 71 -74 81 -89 81 -129 0 -27 6 -44 21 -57 11 -9 27 -29 35 -44 11
-22 22 -28 48 -28 46 0 116 81 116 135 0 26 7 43 25 59 14 13 25 31 25 41 0 9
-11 26 -25 37 l-25 19 0 273 0 273 30 31 c28 29 30 37 30 104 0 62 3 75 24 97
90 96 86 89 86 166 0 66 -2 73 -30 100 -24 23 -30 37 -30 72 0 34 -5 46 -25
59 -24 16 -25 19 -25 134 0 115 1 118 25 134 25 16 25 18 25 157 l0 140 43 50
42 49 370 0 370 0 17 -30 17 -30 150 0 c168 0 171 1 171 73 0 23 8 41 25 57
24 22 25 29 25 135 0 106 -1 112 -25 133 -24 21 -25 27 -25 126 l0 104 -97
116 -97 116 -88 0 c-85 0 -88 1 -105 28 -26 40 -30 42 -125 42 -86 0 -88 0
-102 29 -9 16 -23 31 -31 35 -9 3 -66 6 -126 6 l-110 0 -17 30 -17 30 -120 0
c-66 0 -129 2 -140 5 -11 3 -28 0 -37 -6z"/>
<path d="M4699 5638 c-12 -23 -32 -47 -81 -95 -33 -33 -36 -58 -7 -73 33 -18
62 -4 107 51 30 36 42 61 42 83 0 54 -39 75 -61 34z"/>
<path d="M3828 5529 c-10 -5 -18 -19 -18 -29 0 -33 36 -43 141 -38 53 3 104 1
113 -4 13 -7 16 -26 16 -92 0 -78 -2 -85 -25 -100 -23 -15 -25 -22 -25 -95 0
-71 2 -81 28 -109 15 -17 33 -38 41 -48 14 -16 16 -15 33 7 10 13 30 36 43 52
17 19 25 39 25 65 0 28 7 45 25 62 31 29 32 45 1 66 -29 18 -41 60 -27 95 16
39 87 110 104 103 36 -13 78 42 47 61 -19 12 -504 15 -522 4z"/>
<path d="M4212 2988 c-7 -7 -12 -28 -12 -48 0 -20 -7 -45 -15 -56 -14 -18 -16
-18 -42 14 -28 32 -28 32 -120 32 l-92 0 -16 -30 c-9 -16 -20 -30 -25 -30 -5
0 -14 -9 -20 -20 -9 -17 3 -35 87 -135 l98 -115 55 0 c61 0 68 3 93 43 12 19
26 27 47 27 59 0 60 -5 60 -301 l0 -269 -30 -32 c-30 -31 -30 -32 -30 -145 0
-111 -1 -114 -25 -125 -17 -7 -27 -22 -31 -45 -9 -49 1 -134 17 -143 27 -17
39 10 39 85 0 82 6 105 26 105 8 0 24 15 35 34 11 19 26 37 34 40 10 4 15 20
15 52 0 38 5 50 30 72 l30 26 0 377 0 377 28 20 c26 19 27 25 27 102 0 61 -4
83 -15 90 -23 14 -233 13 -248 -2z"/>
<path d="M2576 2975 c-3 -9 -6 -47 -6 -85 l0 -69 -55 -57 -55 -58 0 -172 0
-171 30 -31 c23 -24 30 -41 30 -70 0 -28 7 -45 25 -62 22 -21 25 -32 25 -96 0
-69 2 -75 33 -108 17 -19 43 -49 57 -66 14 -16 39 -46 55 -65 17 -19 41 -48
55 -65 51 -62 61 -70 88 -70 22 0 38 -11 70 -52 67 -84 62 -80 78 -67 8 6 14
29 14 51 0 34 -9 50 -61 112 -33 39 -72 86 -87 104 -15 18 -39 47 -55 65 -15
17 -37 45 -50 60 -24 30 -66 79 -109 127 l-28 31 0 238 0 238 -30 31 c-16 18
-30 40 -30 51 0 44 13 78 33 86 20 9 22 17 22 95 0 79 -1 85 -21 88 -13 2 -24
-4 -28 -13z"/>
<path d="M4165 1463 c-6 -5 -18 -20 -28 -35 -13 -22 -25 -28 -51 -28 -27 0
-39 -7 -60 -35 -22 -28 -34 -35 -61 -35 -28 0 -37 -6 -50 -30 l-16 -30 -155 0
-155 0 -10 30 c-17 48 -90 54 -105 8 -9 -29 18 -48 68 -48 29 0 38 -4 38 -17
0 -10 20 -39 45 -65 34 -37 51 -48 75 -48 24 0 35 -7 48 -30 16 -28 21 -30 78
-30 l61 0 101 -122 c56 -68 107 -129 114 -137 10 -12 15 -10 30 10 48 62 65
82 91 107 22 21 27 35 27 73 0 39 -4 51 -26 66 -26 19 -26 20 -26 162 l0 143
28 29 c23 24 26 33 18 47 -12 18 -62 27 -79 15z"/>
</g>
</svg>
